<?xml version="1.0" encoding="UTF-8"?>
<!DOCTYPE svg PUBLIC "-//W3C//DTD SVG 1.1//EN" "http://www.w3.org/Graphics/SVG/1.1/DTD/svg11.dtd">
<!-- Creator: CorelDRAW X7 -->
<svg xmlns="http://www.w3.org/2000/svg" xml:space="preserve" width="7.1747in" height="2.02106in" version="1.1" style="shape-rendering:geometricPrecision; text-rendering:geometricPrecision; image-rendering:optimizeQuality; fill-rule:evenodd; clip-rule:evenodd"
viewBox="0 0 7175 2021"
 xmlns:xlink="http://www.w3.org/1999/xlink">
 <defs>
  <style type="text/css">
   <![CDATA[
    .fil0 {fill:#201E1E}
    .fil1 {fill:#201E1E;fill-rule:nonzero}
   ]]>
  </style>
 </defs>
 <g id="Layer_x0020_1">
  <metadata id="CorelCorpID_0Corel-Layer"/>
  <g id="_588447736">
   <g>
    <path class="fil0" d="M1011 0c558,0 1010,452 1010,1011 0,558 -452,1010 -1010,1010 -559,0 -1011,-452 -1011,-1010 0,-163 39,-317 107,-454l41 96c-45,110 -71,231 -71,358 0,515 418,933 934,933 515,0 933,-418 933,-933 0,-516 -418,-934 -933,-934 -247,0 -471,96 -638,252l-32 -75c178,-158 413,-254 670,-254z"/>
    <path class="fil0" d="M1057 863c197,23 336,54 417,91 164,75 246,188 246,338 0,56 -13,110 -40,162 -26,52 -62,96 -108,131 -134,102 -327,153 -579,153l-224 0 0 -34c16,4 152,6 172,6 112,0 190,-45 233,-133 32,-66 48,-160 48,-281 0,-157 -27,-267 -83,-329 -33,-36 -74,-60 -124,-72 -14,-4 -31,-6 -51,-8 -5,40 -38,71 -79,71 -44,0 -80,-36 -80,-79 0,-44 36,-80 80,-80 33,0 62,21 73,50 26,-4 47,-9 64,-15 49,-19 86,-65 112,-139 17,-45 24,-103 24,-174 0,-125 -25,-214 -77,-267 -26,-27 -59,-46 -99,-55 -24,-6 -250,-10 -289,-11l0 -27c118,3 406,10 478,21 151,23 265,69 343,138 66,59 99,128 99,209 0,64 -19,119 -58,168 -38,48 -94,86 -166,113 -77,27 -188,45 -332,53z"/>
    <path class="fil0" d="M915 1738c-25,0 -147,0 -171,0l0 0c-41,-2 -71,-22 -90,-59 -3,-8 -6,-15 -9,-22 -2,-4 -3,-8 -5,-12 -28,-66 -57,-133 -86,-199 -29,-67 -58,-134 -87,-200 -20,-49 -42,-98 -63,-146 -21,-49 -42,-98 -63,-146 0,0 0,0 0,0 0,0 0,0 0,0l-329 -763 239 0 664 1547z"/>
   </g>
   <polygon class="fil0" points="2219,116 2320,116 2320,1874 2219,1874 "/>
   <path class="fil1" d="M2535 949l0 -495c0,-11 6,-17 16,-17l225 0c21,0 41,4 59,12 19,8 35,19 48,33 14,14 25,30 33,48 8,19 12,39 12,60 0,36 -11,66 -32,91 17,16 30,34 40,56 10,21 16,44 16,68 0,22 -5,42 -13,61 -8,20 -19,37 -34,51 -14,15 -30,26 -49,35 -19,8 -38,12 -59,12l-246 0c-10,0 -16,-5 -16,-15zm276 -149c0,-7 -1,-15 -4,-22 -3,-7 -7,-13 -12,-19 -4,-5 -10,-9 -17,-13 -6,-4 -14,-5 -22,-5l-83 0 0 118 83 0c16,0 29,-6 39,-18 11,-13 16,-26 16,-41zm-19 -206c0,-15 -5,-27 -15,-37 -10,-10 -23,-15 -39,-15l-65 0 0 103 64 0c17,0 30,-5 40,-14 10,-10 15,-22 15,-37zm590 351c0,6 -2,11 -7,14 -4,4 -9,5 -14,5l-69 0c-8,0 -13,-2 -15,-5 -3,-4 -5,-9 -7,-15l-8 -21c-3,5 -7,10 -11,16 -4,6 -9,11 -15,15 -5,5 -12,9 -20,12 -8,3 -18,5 -30,5l-4 0c-26,0 -49,-5 -70,-14 -21,-9 -40,-21 -55,-37 -15,-16 -27,-36 -36,-58 -8,-22 -13,-45 -13,-71 0,-26 5,-51 13,-73 8,-22 20,-41 35,-57 16,-15 34,-28 55,-37 22,-9 45,-13 71,-13 24,0 44,6 59,18 14,12 25,26 31,41l11 -33c3,-10 5,-15 7,-17 2,-3 7,-4 15,-4l56 0c5,0 10,2 15,6 4,3 6,8 6,14l0 309zm-248 -152c0,18 6,34 17,47 11,12 26,19 43,19 19,0 34,-7 46,-19 12,-13 18,-29 18,-47 0,-19 -6,-35 -18,-48 -12,-13 -27,-19 -46,-19 -17,0 -32,6 -43,19 -11,13 -17,29 -17,48zm451 131c-4,9 -7,18 -10,27 -4,9 -9,13 -18,13l-68 0c-10,-1 -15,-7 -15,-18l0 -491c0,-5 3,-9 7,-13 5,-4 9,-5 13,-5l88 0c6,0 11,1 14,5 3,4 4,8 4,13l0 188c8,-8 17,-15 28,-21 10,-6 24,-9 42,-9 26,0 49,4 70,14 21,9 39,22 54,38 15,16 26,35 34,57 9,21 13,45 13,70 0,24 -4,48 -13,69 -8,22 -20,41 -35,57 -15,16 -33,29 -53,39 -20,9 -43,14 -67,14 -22,0 -39,-4 -51,-10 -12,-7 -25,-19 -37,-37zm127 -131c0,-18 -6,-34 -17,-47 -11,-14 -26,-20 -44,-20 -18,0 -34,6 -46,20 -12,13 -18,29 -18,47l0 2c1,18 7,33 19,45 12,12 27,19 45,19 18,0 33,-7 44,-19 11,-13 17,-29 17,-47zm554 152c0,6 -2,11 -6,14 -5,4 -10,5 -15,5l-69 0c-8,0 -13,-2 -15,-5 -2,-4 -5,-9 -7,-15l-8 -21c-3,5 -7,10 -11,16 -4,6 -9,11 -14,15 -6,5 -13,9 -21,12 -8,3 -18,5 -30,5l-4 0c-26,0 -49,-5 -70,-14 -21,-9 -39,-21 -55,-37 -15,-16 -27,-36 -35,-58 -9,-22 -13,-45 -13,-71 0,-26 4,-51 12,-73 8,-22 20,-41 36,-57 15,-15 33,-28 55,-37 21,-9 44,-13 70,-13 25,0 44,6 59,18 15,12 25,26 31,41l11 -33c3,-10 6,-15 8,-17 2,-3 6,-4 14,-4l56 0c6,0 11,2 15,6 4,3 6,8 6,14l0 309zm-248 -152c0,18 6,34 17,47 11,12 26,19 44,19 18,0 34,-7 46,-19 12,-13 18,-29 18,-47 0,-19 -6,-35 -18,-48 -12,-13 -28,-19 -46,-19 -18,0 -33,6 -44,19 -11,13 -17,29 -17,48zm351 -184l0 -90c0,-5 1,-9 4,-13 3,-4 8,-6 15,-7l88 -14c10,0 15,6 15,18l0 106 32 0c6,0 11,2 15,5 3,4 5,9 5,16l0 55c0,6 -1,11 -5,15 -4,4 -9,7 -15,7l-32 0 0 240c0,11 -6,17 -19,17l-85 0c-12,0 -18,-6 -18,-17l0 -240 -20 0c-14,0 -21,-8 -21,-22l0 -55c0,-14 7,-21 21,-21l20 0zm572 24l0 310c0,14 -7,21 -22,21l-46 0c-13,0 -23,-5 -28,-15 -6,-9 -11,-21 -15,-33 -4,5 -10,10 -18,16 -8,7 -17,12 -26,18 -10,5 -21,10 -32,13 -12,4 -23,6 -35,6 -26,0 -49,-4 -67,-11 -19,-8 -33,-19 -44,-33 -11,-14 -19,-33 -23,-55 -5,-22 -7,-47 -7,-77l0 -160c0,-5 2,-10 5,-13 3,-3 8,-5 13,-5l89 0c12,0 18,6 18,18l0 169c0,17 4,29 13,37 8,8 21,12 39,12 5,0 11,-1 18,-3 6,-2 13,-5 19,-9 6,-4 11,-9 16,-15 4,-5 6,-12 7,-19l0 -172c0,-6 1,-10 4,-13 2,-4 7,-5 15,-5l88 0c7,0 11,2 14,5 4,4 5,8 5,13zm92 314l0 -310c0,-8 2,-13 5,-16 3,-4 9,-5 17,-5l46 0c13,0 23,4 29,14 6,10 10,21 14,33 4,-5 10,-11 18,-16 7,-6 16,-12 26,-17 10,-5 21,-10 32,-13 12,-4 23,-6 35,-6 27,0 50,4 68,11 18,7 32,18 43,32 11,15 19,33 24,55 4,22 6,48 6,77l0 161c0,5 -1,10 -5,13 -3,3 -8,4 -13,4l-89 0c-12,0 -18,-5 -18,-17l0 -169c0,-17 -4,-29 -12,-38 -8,-8 -21,-12 -39,-12 -6,0 -12,1 -19,3 -7,2 -13,5 -19,9 -6,4 -11,9 -15,15 -4,6 -7,13 -7,20l0 172c0,6 -2,10 -4,13 -3,3 -8,4 -16,4l-88 0c-7,0 -11,-1 -14,-5 -3,-3 -5,-7 -5,-12zm682 -23c-12,18 -24,30 -37,37 -12,6 -29,10 -51,10 -24,0 -46,-5 -67,-14 -20,-10 -38,-23 -52,-39 -15,-16 -27,-35 -36,-57 -8,-21 -12,-45 -12,-69 0,-25 4,-49 12,-70 8,-22 20,-41 35,-57 15,-16 33,-29 53,-38 21,-10 45,-14 70,-14 18,0 32,3 43,9 10,6 19,13 27,21l0 -188c0,-5 2,-9 5,-13 3,-4 7,-5 13,-5l89 0c4,0 8,1 12,5 5,4 7,8 7,13l0 491c0,11 -5,17 -14,18l-69 0c-8,0 -14,-4 -17,-13 -3,-9 -7,-18 -11,-27zm-126 -131c0,18 5,34 17,47 11,12 25,19 44,19 18,0 33,-7 45,-19 12,-12 18,-27 18,-45l0 -2c0,-18 -6,-34 -18,-47 -12,-14 -27,-20 -45,-20 -19,0 -33,6 -44,20 -12,13 -17,29 -17,47zm604 142c-32,26 -69,39 -111,39 -25,0 -48,-5 -70,-15 -22,-9 -41,-22 -58,-39 -17,-16 -30,-36 -39,-58 -10,-22 -14,-45 -14,-71 0,-24 4,-47 13,-69 9,-22 21,-42 36,-58 15,-17 33,-31 54,-41 22,-9 45,-14 69,-14 23,0 46,4 66,13 21,8 40,21 55,36 16,15 29,33 38,54 9,20 14,43 14,66 0,17 -4,29 -11,36 -7,8 -22,11 -43,11l-176 0c5,17 14,29 27,37 14,8 26,12 37,12 10,0 19,-1 29,-4 10,-3 18,-6 24,-10 5,-2 9,-5 11,-7 3,-2 6,-3 9,-3 4,0 8,2 12,7l35 51c3,3 4,7 4,11 0,6 -4,12 -11,16zm-118 -227c-12,0 -24,4 -34,12 -10,8 -17,17 -22,28l118 0c-5,-10 -13,-19 -23,-28 -9,-8 -22,-12 -39,-12z"/>
   <path class="fil1" d="M3180 1109l-240 625c-4,13 -13,20 -27,20l-104 0c-14,0 -23,-7 -28,-20l-240 -626c-6,-13 -1,-20 12,-20l144 1c13,0 21,7 26,20l137 401 137 -401c4,-13 13,-20 26,-20l145 0c13,0 18,7 12,20z"/>
   <path class="fil1" d="M3091 1734l243 -625c5,-13 14,-20 27,-20l110 0c13,0 22,7 27,20l244 625c5,13 1,20 -13,20l-133 0c-13,0 -22,-7 -26,-20l-31 -88 -245 0 -30 88c-4,13 -13,20 -27,20l-134 0c-13,0 -17,-7 -12,-20zm324 -435l-71 204 143 0 -72 -204z"/>
   <path class="fil1" d="M4000 1109l0 379c0,23 3,41 9,56 6,16 14,28 24,38 10,10 22,17 35,22 13,4 27,6 41,6 15,0 29,-2 43,-8 13,-5 25,-13 35,-23 10,-10 17,-23 23,-38 6,-15 9,-33 9,-53l0 -379c0,-6 2,-10 6,-14 3,-4 8,-6 15,-6l131 0c6,0 11,2 15,6 4,4 6,8 6,14l0 377c0,52 -7,95 -23,131 -15,35 -35,64 -61,86 -26,22 -57,37 -91,47 -34,10 -70,14 -108,14 -37,0 -73,-5 -107,-14 -34,-10 -64,-26 -90,-48 -26,-22 -47,-50 -63,-86 -15,-35 -23,-79 -23,-130l0 -377c0,-6 2,-10 5,-14 3,-4 8,-6 13,-6l136 0c9,0 14,2 16,5 3,4 4,9 4,15z"/>
   <path class="fil1" d="M4834 1598c9,0 20,-1 31,-3 12,-1 23,-3 32,-6l0 -118c0,-14 7,-20 20,-20l120 0c4,0 9,1 13,3 4,3 7,8 7,17l0 216c0,9 -4,16 -11,21 -28,17 -60,31 -96,41 -37,9 -76,14 -116,14 -47,0 -92,-9 -134,-26 -42,-18 -78,-43 -109,-74 -32,-32 -56,-68 -74,-110 -18,-42 -27,-86 -27,-133 0,-48 9,-93 27,-134 18,-41 42,-77 73,-108 30,-31 67,-55 108,-72 42,-18 87,-27 134,-27 41,0 76,5 107,16 31,10 61,26 88,46 10,7 12,16 6,25l-74 107c-3,4 -7,7 -12,7 -5,1 -10,-1 -15,-5 -14,-9 -28,-17 -45,-23 -16,-7 -34,-10 -53,-10 -26,0 -49,5 -71,14 -21,9 -39,22 -54,38 -15,15 -26,34 -34,56 -8,21 -12,44 -12,70 0,25 4,48 12,70 9,22 20,41 36,57 15,16 33,28 54,38 21,9 44,13 69,13z"/>
   <path class="fil1" d="M5581 1734l0 -254 -225 0 0 254c0,13 -7,20 -22,20l-131 0c-13,0 -19,-7 -19,-20l0 -625c0,-6 1,-10 4,-14 3,-4 8,-6 15,-6l134 0c4,0 8,1 13,3 4,2 6,7 6,16l0 213 225 0 0 -212c0,-6 1,-10 5,-14 3,-4 8,-6 14,-6l135 0c3,0 7,1 12,3 4,2 6,7 6,16l0 626c0,13 -7,20 -21,20l-132 0c-13,0 -19,-7 -19,-20z"/>
   <path class="fil1" d="M5849 1734l243 -625c5,-13 15,-20 28,-20l109 0c14,0 23,7 27,20l244 625c6,13 2,20 -12,20l-134 0c-13,0 -21,-7 -26,-20l-31 -88 -244 0 -31 88c-4,13 -13,20 -27,20l-133 0c-14,0 -18,-7 -13,-20zm324 -435l-70 204 142 0 -72 -204z"/>
   <path class="fil1" d="M6989 1734l-235 -387 0 387c0,13 -7,20 -22,20l-125 0c-13,0 -19,-7 -19,-20l0 -625c0,-6 2,-10 5,-14 3,-4 7,-6 14,-6l145 0c13,0 24,7 32,20l224 362 0 -362c0,-6 2,-10 6,-14 3,-4 8,-6 15,-6l124 0c5,0 10,2 15,5 4,4 7,9 7,15l0 625c0,13 -7,20 -22,20l-131 0c-14,0 -25,-7 -33,-20z"/>
  </g>
 </g>
</svg>
